<?xml version="1.0" standalone="no"?>
<!DOCTYPE svg PUBLIC "-//W3C//DTD SVG 20010904//EN"
 "http://www.w3.org/TR/2001/REC-SVG-20010904/DTD/svg10.dtd">
<svg version="1.0" xmlns="http://www.w3.org/2000/svg"
 width="24.000000pt" height="24.000000pt" viewBox="0 0 24.000000 24.000000"
 preserveAspectRatio="xMidYMid meet">

<g transform="translate(0.000000,24.000000) scale(0.100000,-0.100000)"
fill="#2e930a" stroke="none">
<path d="M26 191 c-4 -5 16 -23 44 -40 l50 -31 50 31 c28 17 48 35 44 40 -7
12 -181 12 -188 0z"/>
<path d="M22 103 l3 -58 93 -3 c104 -3 105 -3 100 71 l-3 46 -48 -29 -47 -30
-38 23 c-20 13 -43 27 -50 31 -10 6 -12 -5 -10 -51z"/>
</g>
</svg>
