<?xml version="1.0" standalone="no"?>
<!DOCTYPE svg PUBLIC "-//W3C//DTD SVG 20010904//EN"
 "http://www.w3.org/TR/2001/REC-SVG-20010904/DTD/svg10.dtd">
<svg version="1.0" xmlns="http://www.w3.org/2000/svg"
 width="24.000000pt" height="24.000000pt" viewBox="0 0 24.000000 24.000000"
 preserveAspectRatio="xMidYMid meet">

<g transform="translate(0.000000,24.000000) scale(0.100000,-0.100000)"
fill="#2e930a" stroke="none">
<path d="M69 205 c-34 -19 -48 -57 -46 -125 l2 -55 55 -2 c69 -2 107 12 125
48 48 92 -45 183 -136 134z m33 -75 c2 -20 9 -25 31 -26 32 -1 42 -8 32 -23
-10 -18 -31 -13 -64 15 -29 24 -39 52 -24 68 10 9 21 -5 25 -34z"/>
</g>
</svg>
